<svg width="638" height="276" viewBox="0 0 638 276" fill="none" xmlns="http://www.w3.org/2000/svg">
<g filter="url(#filter0_iiii_537_33)">
<path d="M253.013 -156.642C209.562 -137.718 235.965 -81.7351 199.904 -55.3154C152.723 -20.7481 63.9968 -31.9144 27.2196 8.78407C-10.1078 50.0914 -3.79694 104.95 15.0987 149.194C35.5356 197.047 74.8732 242.551 135.945 263.365C196.298 283.933 271.596 276.912 338.198 259.307C397.214 243.706 433.631 201.131 483.28 171.55C531.279 142.951 600.862 129.638 625.2 88.3077C649.581 46.9068 633.945 -1.10248 606.703 -38.0334C582.607 -70.6971 529.354 -81.5789 486.035 -100.347C452.935 -114.688 419.77 -126.093 382.877 -135.006C340.12 -145.335 294.463 -174.695 253.013 -156.642Z" fill="#2AB1AD"/>
</g>
<defs>
<filter id="filter0_iiii_537_33" x="0.0185547" y="-162.384" width="637.294" height="454.33" filterUnits="userSpaceOnUse" color-interpolation-filters="sRGB">
<feFlood flood-opacity="0" result="BackgroundImageFix"/>
<feBlend mode="normal" in="SourceGraphic" in2="BackgroundImageFix" result="shape"/>
<feColorMatrix in="SourceAlpha" type="matrix" values="0 0 0 0 0 0 0 0 0 0 0 0 0 0 0 0 0 0 127 0" result="hardAlpha"/>
<feOffset dy="16"/>
<feGaussianBlur stdDeviation="16"/>
<feComposite in2="hardAlpha" operator="arithmetic" k2="-1" k3="1"/>
<feColorMatrix type="matrix" values="0 0 0 0 0 0 0 0 0 0 0 0 0 0 0 0 0 0 0.16 0"/>
<feBlend mode="normal" in2="shape" result="effect1_innerShadow_537_33"/>
<feColorMatrix in="SourceAlpha" type="matrix" values="0 0 0 0 0 0 0 0 0 0 0 0 0 0 0 0 0 0 127 0" result="hardAlpha"/>
<feOffset dy="8"/>
<feGaussianBlur stdDeviation="8"/>
<feComposite in2="hardAlpha" operator="arithmetic" k2="-1" k3="1"/>
<feColorMatrix type="matrix" values="0 0 0 0 0 0 0 0 0 0 0 0 0 0 0 0 0 0 0.12 0"/>
<feBlend mode="normal" in2="effect1_innerShadow_537_33" result="effect2_innerShadow_537_33"/>
<feColorMatrix in="SourceAlpha" type="matrix" values="0 0 0 0 0 0 0 0 0 0 0 0 0 0 0 0 0 0 127 0" result="hardAlpha"/>
<feOffset dy="4"/>
<feGaussianBlur stdDeviation="4"/>
<feComposite in2="hardAlpha" operator="arithmetic" k2="-1" k3="1"/>
<feColorMatrix type="matrix" values="0 0 0 0 0 0 0 0 0 0 0 0 0 0 0 0 0 0 0.12 0"/>
<feBlend mode="normal" in2="effect2_innerShadow_537_33" result="effect3_innerShadow_537_33"/>
<feColorMatrix in="SourceAlpha" type="matrix" values="0 0 0 0 0 0 0 0 0 0 0 0 0 0 0 0 0 0 127 0" result="hardAlpha"/>
<feOffset dy="2"/>
<feGaussianBlur stdDeviation="2"/>
<feComposite in2="hardAlpha" operator="arithmetic" k2="-1" k3="1"/>
<feColorMatrix type="matrix" values="0 0 0 0 0 0 0 0 0 0 0 0 0 0 0 0 0 0 0.12 0"/>
<feBlend mode="normal" in2="effect3_innerShadow_537_33" result="effect4_innerShadow_537_33"/>
</filter>
</defs>
</svg>
