<svg width="650" height="707" viewBox="0 0 650 707" fill="none" xmlns="http://www.w3.org/2000/svg">
<g filter="url(#filter0_iiii_526_418)">
<path d="M518.786 16.5103C551.063 55.4604 491.331 137.538 511.748 186.652C538.461 250.913 633.98 252.397 646.626 324.04C659.461 396.755 620.525 481.369 575.293 546.658C526.371 617.273 459.912 680.163 386.361 699.713C313.674 719.033 242.418 691.922 186.166 650.086C136.322 613.015 125.153 538.508 93.0038 481.532C61.923 426.45 0.134647 390.701 0.324349 320.729C0.514375 250.638 44.7194 178.751 93.9657 126.708C137.522 80.6778 197.337 75.0181 251.89 54.8755C293.573 39.4846 333.577 28.7073 375.833 22.6332C424.805 15.5937 487.996 -20.6465 518.786 16.5103Z" fill="#484C9A"/>
</g>
<defs>
<filter id="filter0_iiii_526_418" x="0.32373" y="0.0166016" width="648.784" height="722.046" filterUnits="userSpaceOnUse" color-interpolation-filters="sRGB">
<feFlood flood-opacity="0" result="BackgroundImageFix"/>
<feBlend mode="normal" in="SourceGraphic" in2="BackgroundImageFix" result="shape"/>
<feColorMatrix in="SourceAlpha" type="matrix" values="0 0 0 0 0 0 0 0 0 0 0 0 0 0 0 0 0 0 127 0" result="hardAlpha"/>
<feOffset dy="16"/>
<feGaussianBlur stdDeviation="16"/>
<feComposite in2="hardAlpha" operator="arithmetic" k2="-1" k3="1"/>
<feColorMatrix type="matrix" values="0 0 0 0 0 0 0 0 0 0 0 0 0 0 0 0 0 0 0.16 0"/>
<feBlend mode="normal" in2="shape" result="effect1_innerShadow_526_418"/>
<feColorMatrix in="SourceAlpha" type="matrix" values="0 0 0 0 0 0 0 0 0 0 0 0 0 0 0 0 0 0 127 0" result="hardAlpha"/>
<feOffset dy="8"/>
<feGaussianBlur stdDeviation="8"/>
<feComposite in2="hardAlpha" operator="arithmetic" k2="-1" k3="1"/>
<feColorMatrix type="matrix" values="0 0 0 0 0 0 0 0 0 0 0 0 0 0 0 0 0 0 0.12 0"/>
<feBlend mode="normal" in2="effect1_innerShadow_526_418" result="effect2_innerShadow_526_418"/>
<feColorMatrix in="SourceAlpha" type="matrix" values="0 0 0 0 0 0 0 0 0 0 0 0 0 0 0 0 0 0 127 0" result="hardAlpha"/>
<feOffset dy="4"/>
<feGaussianBlur stdDeviation="4"/>
<feComposite in2="hardAlpha" operator="arithmetic" k2="-1" k3="1"/>
<feColorMatrix type="matrix" values="0 0 0 0 0 0 0 0 0 0 0 0 0 0 0 0 0 0 0.12 0"/>
<feBlend mode="normal" in2="effect2_innerShadow_526_418" result="effect3_innerShadow_526_418"/>
<feColorMatrix in="SourceAlpha" type="matrix" values="0 0 0 0 0 0 0 0 0 0 0 0 0 0 0 0 0 0 127 0" result="hardAlpha"/>
<feOffset dy="2"/>
<feGaussianBlur stdDeviation="2"/>
<feComposite in2="hardAlpha" operator="arithmetic" k2="-1" k3="1"/>
<feColorMatrix type="matrix" values="0 0 0 0 0 0 0 0 0 0 0 0 0 0 0 0 0 0 0.12 0"/>
<feBlend mode="normal" in2="effect3_innerShadow_526_418" result="effect4_innerShadow_526_418"/>
</filter>
</defs>
</svg>
