<svg width="82" height="80" viewBox="0 0 82 80" fill="none" xmlns="http://www.w3.org/2000/svg">
<path fill-rule="evenodd" clip-rule="evenodd" d="M50 48.9198C50 43.5161 54.477 39.1358 60 39.1358C65.523 39.1358 70 43.5161 70 48.9198C70 54.3234 65.523 58.7037 60 58.7037C60 64.1074 55.523 68.4877 50 68.4877C44.477 68.4877 40 64.1074 40 58.7037C40 53.3 44.477 48.9198 50 48.9198ZM10 9.78395C10 4.38028 14.477 0 20 0C25.523 0 30 4.38028 30 9.78395C30 15.1876 25.523 19.5679 20 19.5679C20 24.9716 15.523 29.3519 10 29.3519C4.477 29.3519 0 24.9716 0 19.5679C0 14.1642 4.477 9.78395 10 9.78395ZM20 17.6111C24.418 17.6111 28 14.1065 28 9.78395C28 5.4614 24.418 1.95679 20 1.95679C15.582 1.95679 12 5.4614 12 9.78395C12 14.1065 15.582 17.6111 20 17.6111ZM60 56.7469C64.418 56.7469 68 53.2423 68 48.9198C68 44.5972 64.418 41.0926 60 41.0926C55.582 41.0926 52 44.5972 52 48.9198C52 53.2423 55.582 56.7469 60 56.7469Z" fill="black"/>
</svg>
